# xmcd
# 
# Track frame offsets:
#     150
#     34792
#     73885
#     118240
#     153472
#     187312
#     210012
# 
# Disc length: 3135
# 
# Revision: 1
# Processed by: cddbd v1.5.2PL0 Copyright (c) Steve Scherf et al.
# Submitted via: BonkEnc v1.0.8
# 
DISCID=640c3d07
DTITLE=Ben Allison - Seven Arrows
DYEAR=1996
DGENRE=Contemporary Jazz
TTITLE0=Dragzilla
TTITLE1=Reflection of Desire
TTITLE2=Delirioso
TTITLE3=Little Boy
TTITLE4=Cosmic Groove Slinky
TTITLE5=Forgetting, For Now
TTITLE6=King of a One Man Planet
EXTD=YEAR: 1996
EXTT0=
EXTT1=
EXTT2=
EXTT3=
EXTT4=
EXTT5=
EXTT6=
PLAYORDER=
